<!DOCTYPE svg PUBLIC "-//W3C//DTD SVG 1.1//EN" "http://www.w3.org/Graphics/SVG/1.1/DTD/svg11.dtd">
<!-- Uploaded to: SVG Repo, www.svgrepo.com, Transformed by: SVG Repo Mixer Tools -->
<svg fill="#2d6231" width="800px" height="800px" viewBox="0 0 50 50" xmlns="http://www.w3.org/2000/svg" stroke="#2d6231">
<g id="SVGRepo_bgCarrier" stroke-width="0"/>
<g id="SVGRepo_tracerCarrier" stroke-linecap="round" stroke-linejoin="round"/>
<g id="SVGRepo_iconCarrier"> <g id="Solid"> <path d="M37,38l.002,6H13V38Zm9-5H45V47a2.96457,2.96457,0,0,1-.18427,1H45a3.00328,3.00328,0,0,0,3-3V35A2.0026,2.0026,0,0,0,46,33ZM5,47V33H4a2.0026,2.0026,0,0,0-2,2V45a3.00328,3.00328,0,0,0,3,3h.18433A2.96485,2.96485,0,0,1,5,47ZM43,19V47a.99943.99943,0,0,1-1,1H8a.99943.99943,0,0,1-1-1V19a4.9787,4.9787,0,0,1,2-3.97443V28a5.00588,5.00588,0,0,0,5,5H36a5.00588,5.00588,0,0,0,5-5V15.02557A4.9787,4.9787,0,0,1,43,19ZM39,38a2.0026,2.0026,0,0,0-2-2H13a2.0026,2.0026,0,0,0-2,2v6a2.0026,2.0026,0,0,0,2,2H37a2.0026,2.0026,0,0,0,2-2ZM36,7a5.00068,5.00068,0,0,1,1,.10107V4a2.00229,2.00229,0,0,0-2-2H31a2.00229,2.00229,0,0,0-2,2V7ZM14,7h7V4a2.00229,2.00229,0,0,0-2-2H15a2.00229,2.00229,0,0,0-2,2V7.10107A5.00068,5.00068,0,0,1,14,7Zm25,5V28a3.00328,3.00328,0,0,1-3,3H14a3.00328,3.00328,0,0,1-3-3V12a3.00328,3.00328,0,0,1,3-3H36A3.00328,3.00328,0,0,1,39,12Zm-4,8a.99974.99974,0,0,0-1-1H16a1,1,0,0,0,0,2H30v1a1,1,0,0,0,2,0V21h2A.99974.99974,0,0,0,35,20Zm2-5a.99974.99974,0,0,0-1-1H14a1,1,0,0,0,0,2H36A.99974.99974,0,0,0,37,15Z"/> </g> </g>
</svg>