<?xml version="1.0" encoding="UTF-8"?>
<svg id="Layer_1" data-name="Layer 1" xmlns="http://www.w3.org/2000/svg" xmlns:xlink="http://www.w3.org/1999/xlink" viewBox="0 0 960 960">
  <defs>
    <style>
      .cls-1 {
        fill: #0e2962;
      }

      .cls-1, .cls-2, .cls-3, .cls-4, .cls-5 {
        stroke-width: 0px;
      }

      .cls-2 {
        fill: none;
      }

      .cls-6 {
        clip-path: url(#clippath-1);
      }

      .cls-3 {
        fill: #cb001d;
      }

      .cls-4 {
        fill: #040505;
      }

      .cls-5 {
        fill: #fff;
      }

      .cls-7 {
        clip-path: url(#clippath);
      }
    </style>
    <clipPath id="clippath">
      <path class="cls-2" d="M738.33,430.56c-12.38,2.86-25.05,4.22-37.75,4.05-12.7-.16-25.39.39-38.03,1.67-12.75,1.01-25.42,2.86-37.92,5.55-25.02,5.05-50.79,5.13-75.85.24-12.47-2.63-25.15-4.18-37.89-4.63-12.66-.8-25.37-.41-37.96,1.16-12.55,1.58-25.22,1.99-37.85,1.24-12.62-.46-25.18-2.01-37.53-4.63-12.41-2.64-25.07-3.9-37.75-3.74-12.88-.15-25.74,1.2-38.3,4.03-12.68,2.78-25.52,4.72-38.46,5.79-12.72,1.39-25.52,1.97-38.32,1.74-13.02-.25-26.02,1.27-38.63,4.52V87.45c12.15-1.78,24.5-1.78,36.66,0,12.08,1.74,24.27,2.65,36.47,2.72,12.16.36,24.32-.21,36.39-1.69,12.17-1.47,24.48-1.35,36.61.35,12.41,1.43,24.63,4.27,36.4,8.45,11.76,4.13,23.88,7.18,36.2,9.12,11.97,2.19,24.12,3.19,36.29,2.98,12.2-.18,24.39.8,36.4,2.93,12.32,1.84,24.47,4.67,36.34,8.45,11.83,3.66,24.03,6.03,36.37,7.07,12.19,1.38,24.49,1.38,36.68,0,12.29-1.33,24.65-1.86,37.01-1.59,12.43-.02,24.86.66,37.22,2.04,12.4,1.37,24.92,1.23,37.29-.42,4.73,90.83,14.52,211.99,19.89,302.71Z"/>
    </clipPath>
    <clipPath id="clippath-1">
      <rect class="cls-2" x="41.73" y="752.63" width="875.6" height="121.37"/>
    </clipPath>
  </defs>
  <g id="Group_51" data-name="Group 51">
    <path id="Path_209" data-name="Path 209" class="cls-4" d="M703.8,722.66c.08,5.54-4.35,10.1-9.89,10.18h-36.23c-5.51-.02-9.98-4.48-10-10v-102.49c0-5.52-1.55-5.79-3.53-.6l-29.51,80.26c-2.3,5.47-7.54,9.13-13.46,9.41h-16.58c-5.92-.28-11.14-3.94-13.43-9.41l-29.86-81.28c-1.91-5.17-3.53-4.88-3.53.63v103.35c-.03,5.52-4.49,9.98-10.01,10h-35.34c-5.51-.02-9.98-4.48-10-10v-239.91c0-5.53,4.47-10.02,10-10.03h38.87c5.91.29,11.13,3.96,13.39,9.43l45.31,125.85c1.88,5.2,4.24,7.07,5.26,4s3.36-9.69,5.24-14.84l41.17-115.01c2.24-5.48,7.45-9.16,13.36-9.43h38.78c5.53.02,10,4.51,10,10.03v239.86ZM813.75,570.69l40.87-88.78c2.77-5.32,8.15-8.78,14.14-9.12h42.06c3.17-.47,6.11,1.72,6.58,4.88.21,1.45-.13,2.92-.96,4.13l-69.28,141.36c-2.67,5.98-4.17,12.43-4.41,18.98v80.55c-.05,5.51-4.5,9.96-10.01,10h-37.53c-5.52-.02-10-4.48-10.03-10v-80.55c-.26-6.52-1.77-12.92-4.43-18.87l-69.62-141.36c-1.81-2.64-1.14-6.24,1.5-8.05,1.19-.82,2.65-1.16,4.09-.96h43.54c5.99.32,11.37,3.79,14.14,9.12l39.37,88.67ZM366.88,472.79s89.88-3.22,89.88,79.05c1.76,31.47-16.27,60.71-45.19,73.27l57.71,98.95c2.79,4.77.57,8.67-4.95,8.67h-46.55c-6.09-.35-11.65-3.58-14.96-8.7l-50.85-89.22h-19.33v87.83c.08,5.54-4.35,10.1-9.89,10.18h-38c-5.51-.02-9.98-4.48-10-10v-240.04c0-5.52,4.48-10,10-10h82.14,0ZM332.64,580.87h24.74c41.63,0,41.63-21.56,41.63-30.75,0-14.14-3.19-27.18-41.63-27.18h-24.74v57.93ZM265.52,723.16l-81.53-240.89c-2.15-5.5-7.32-9.22-13.22-9.5h-33.43c-5.9.28-11.07,4-13.22,9.5l-81.53,240.89c-1.62,3.38-.2,7.43,3.17,9.06,1.13.53,2.39.75,3.64.63h40.04c5.86-.28,10.99-4.04,13.01-9.55l11.34-34.6,79.77.21,11.02,34.39c2.04,5.51,7.17,9.27,13.05,9.55h41.1c3.71.4,7.04-2.28,7.44-5.99.14-1.27-.09-2.55-.65-3.69ZM131.22,634.98l22.72-69.31,22.3,69.41-45.03-.1Z"/>
    <g id="Group_47" data-name="Group 47">
      <g id="Group_46" data-name="Group 46">
        <g class="cls-7">
          <g id="Group_45" data-name="Group 45">
            <g id="Group_44" data-name="Group 44">
              <g id="Group_43" data-name="Group 43">
                <path id="Path_210" data-name="Path 210" class="cls-1" d="M517.52,207.94l3.53-1.62c9.43-4.5,17.67-10.36,26.93-15.06,12.93-6.5,28.56-10.07,40.96-17.67,13.72-8.48,22.55-20.68,36.51-29.58,10.6-6.86,23.93-11,35.73-17.08-4.77-.24-10.43-.38-17.17-.42-12.36-.26-24.72.27-37.01,1.59-12.19,1.38-24.49,1.38-36.68,0-12.34-1.03-24.54-3.4-36.37-7.07-5.34-1.62-10.78-3.29-18.13-4.98-.88,31.8,0,62.09,1.77,92.17M408.89,200.33c-1.59-31.8-2.58-63.93-1.91-97.62-6.2-1.49-12.31-3.32-18.31-5.48-11.78-4.18-23.99-7.01-36.4-8.45-12.14-1.7-24.45-1.82-36.61-.35-12.1,1.45-24.29,1.98-36.47,1.59-6.67,0-12.15-.35-16.86-.64,12.75,9.19,28.25,15.27,41.32,24.92,9.58,7.07,18.17,15.06,27.99,22.08l3.53,2.55c12.64,7.24,24.84,15.22,36.54,23.89,13.79,11.66,23.08,26.15,37.01,37.49M206.06,405.99c3.89-2.55,11.98-7.74,19.75-13.39l1.98-1.45c10.6-7.93,20.01-16.51,30.25-23.96,13.19-9.65,28.6-15.91,41.42-24.42,8.89-6.19,16.98-13.47,24.08-21.67h-1c-12.54,2.38-25.24,3.87-37.99,4.45-12.94.89-25.93.89-38.87,0-13.29-.91-26.64-.11-39.73,2.38v78.07M206.06,207.6c12.62-1.7,25.41-1.7,38.03,0,12.38,1.57,24.85,2.27,37.33,2.09,12.28.13,24.56-.67,36.72-2.4h.95l-4.17-3.19c-16.46-12.43-36.96-19.5-53.22-31.38-14.74-10.79-24.33-25.63-39.39-35.35-5.09-3.17-10.54-5.74-16.22-7.66v77.88M736.12,395.59c-1.41-21.84-2.87-43.73-4.38-65.66-12.58,1.98-25.34,2.54-38.04,1.66-12.57-.88-25.19-1-37.77-.36-12.42.31-24.81,1.47-37.08,3.48h-.85l4.34,2.69c17.14,10.6,38.24,15.73,55.23,25.17,15.44,8.55,25.98,20.64,41.85,27.67,5.38,2.25,10.97,3.94,16.68,5.06M724.7,228.83c-1.49-21.84-2.98-43.68-4.29-65.57-3.85,2.02-11.02,5.69-18.41,10.11l-1.87,1.16c-9.98,6.12-18.54,13.05-28.28,19.01-12.43,7.7-27.21,12.55-39.39,19.7-8.38,5.11-16.01,11.35-22.69,18.54h.85c12.35-1.77,24.81-2.7,37.29-2.79,12.74-.37,25.48-.01,38.18,1.05,12.85,1.12,25.78.78,38.55-1.02M529.98,438.93c7.71.92,13.36,2.05,18.94,3.14,25.05,4.89,50.82,4.81,75.85-.24,12.5-2.69,25.17-4.54,37.92-5.55,6.62-.6,12.12-1,16.86-1.27-13.67-6.5-29.82-10.29-43.65-17.67-10.07-5.38-19.15-11.95-29.48-17.46l-3.88-2.02c-8.84-4.48-18.54-7.88-27.22-12.74-6.31-3.45-12.23-7.56-17.67-12.26-10.25-8.88-18.67-19.03-30.12-27.25,1.8,30.25,2.93,61.18,2.4,93.34M283.14,441.37c12.93-1.08,25.78-3.01,38.46-5.79,12.59-2.83,25.47-4.19,38.37-4.03,12.71-.16,25.39,1.1,37.82,3.74,5.55,1.07,11.2,2.24,18.94,3.15,1.81-32.7,1.62-64.22.5-95.43l-3.53,1.84c-9.72,5.16-18.17,11.8-27.92,17.38-13.5,7.7-29.72,12.58-42.87,21.84-14.6,10.29-24.33,24.75-39.23,35.92-11.27,8.59-25.03,14.59-37.42,22.72,4.81-.28,10.36-.74,17.03-1.38"/>
              </g>
              <path id="Path_211" data-name="Path 211" class="cls-3" d="M206.04,303.85c13.04-2.31,26.32-2.94,39.52-1.87,12.81,1.05,25.68,1.21,38.51.49,12.67-.38,25.3-1.67,37.78-3.85,12.31-2.2,24.83-2.98,37.32-2.32,12.55.32,25.04,1.96,37.25,4.88,12.15,2.84,24.52,4.66,36.97,5.43,3,.22,5.79.39,8.34.5,3.13,44.28,3.77,88.7,1.91,133.05,9.78.22,19.55-.29,29.26-1.52,9.87-1.23,19.82-1.73,29.77-1.48,1.16-45.66-1.16-88.78-4.24-131.26,2.43,0,5.09.25,7.95.46,12.52.79,24.95,2.57,37.18,5.33,12.15,2.75,24.54,4.27,37,4.56,12.28.58,24.59-.13,36.73-2.12,12.26-2.03,24.65-3.19,37.08-3.48,12.55-.55,25.11-.33,37.63.64,12.76.94,25.58.45,38.24-1.45l-4.24-60.66c-12.77,1.82-25.7,2.2-38.55,1.16-12.68-1.06-25.42-1.38-38.14-.95-12.47.14-24.91,1.12-37.25,2.93-12.16,1.82-24.48,2.35-36.75,1.59-12.42-.49-24.75-2.21-36.82-5.16-12.12-2.93-24.44-4.93-36.87-5.98l-7.91-.64c-3.57-43.49-4.91-87.14-4.03-130.77-9.45-1.35-18.99-1.93-28.53-1.76-9.38.19-18.76-.4-28.05-1.74-1.03,46.83,1.41,90.98,4.31,134.3-2.55,0-5.27-.38-8.27-.67-12.35-1.1-24.59-3.25-36.58-6.43-12.03-3.26-24.36-5.26-36.8-5.97-12.23-1.06-24.54-.67-36.68,1.16-12.25,1.84-24.61,2.74-37,2.71-12.57.31-25.15-.27-37.64-1.73-12.79-1.53-25.72-1.35-38.46.53v72.13"/>
              <path id="Path_212" data-name="Path 212" class="cls-3" d="M206.04,115.55c14.51,5.1,27.35,14.06,37.15,25.91,6.67,7.62,14.26,14.39,22.58,20.15,12.75,8.69,28.35,14.31,41.39,23.43,9.15,6.4,17.67,13.58,27.11,19.7l1.31.86c15.44-.22,30.85,1.34,45.94,4.63-3.96-3.83-8.19-7.37-12.65-10.6-13.12-9.72-28.63-16.22-41.77-25.66-9.12-6.6-17.38-14.14-26.75-20.14l-1.84-1.16c-4.16-2.64-8.41-5.1-12.75-7.38-16.37-6.89-30.9-17.52-42.42-31.04-9.61-12.26-22.54-21.51-37.25-26.65v28.03"/>
              <path id="Path_213" data-name="Path 213" class="cls-5" d="M206.04,87.52c11.95,4.56,11.91,3.48,46.66,36.13,15.22,14.14,36.44,21.45,53.65,34.03,8.52,6.15,16.29,13.22,25.2,19.05,12.37,8.41,26.54,14.56,38.63,23.51,4.07,3.09,7.94,6.45,11.59,10.03-15.09-3.29-30.51-4.85-45.95-4.63l-1.83-1.16c-10.05-6.5-18.87-14.14-28.66-20.86-12.69-8.62-27.61-14.14-40.08-22.44-8.24-5.8-15.75-12.58-22.37-20.17-9.81-11.62-22.54-20.41-36.87-25.49v13.96c5.77,1.97,11.3,4.59,16.48,7.81,15.69,10.11,25.49,25.77,41.35,36.69s35.34,18.02,51.21,29.96l3.99,3.05h-.95c-12.16,1.72-24.44,2.52-36.72,2.4-12.48.17-24.95-.52-37.33-2.09-12.62-1.7-25.41-1.7-38.03,0v24.07c12.74-1.88,25.67-2.06,38.46-.53,12.46,1.56,25.02,2.25,37.57,2.05,12.36.03,24.7-.88,36.93-2.71,12.14-1.83,24.45-2.22,36.68-1.16,12.44.71,24.77,2.71,36.8,5.97,12.01,3.24,24.27,5.46,36.65,6.62,3,.28,5.72.49,8.27.67-2.9-43.47-5.34-87.62-4.31-134.3-2.55-.32-5.27-.75-8.24-1.24-7.07-1.16-12.98-2.44-17.89-3.48-.67,33.68.32,65.99,1.91,97.62-14.14-11.59-23.72-26.3-37.75-38.24-11.77-8.54-23.98-16.47-36.58-23.74l-3.53-2.51c-9.83-7.07-18.34-15.13-27.96-22.08-13-9.83-28.06-15.77-40.75-24.68-8.11-.71-13.9-1.52-19.6-2.26-12.15-1.78-24.5-1.78-36.66,0M502.74,437.13l8.19.32c7.64.35,13.75.88,18.94,1.48.53-32.16-.6-63.09-2.4-93.34,14.38,10.6,24.33,23.82,38.87,33.99,12.18,7.2,24.81,13.6,37.82,19.15l1.91,1c10.88,5.79,20.46,12.83,31.2,18.38,13.43,7.07,29.09,10.6,42.16,16.89,8.84-.46,15.06-.39,21.2-.39,12.37.16,24.73-1.13,36.8-3.85-15.52-2.76-29.92-9.95-41.46-20.7-12.7-11.53-27.71-20.22-44.03-25.49-27.92-13.07-52.8-24.74-80.9-40.25-5.84-2.57-11.37-5.8-16.48-9.62,9.09,1.51,18.29,2.37,27.51,2.55,6.4.23,12.8.15,19.19-.24l1.91.99c10.31,5.52,19.43,12.09,29.58,17.67,13.25,7.07,28.62,10.93,41.71,17.46,8.5,4.41,16.49,9.75,23.82,15.91,10.98,9.51,24.31,15.91,38.59,18.54-.24-3.93-.53-7.84-.78-11.81-5.9-1.13-11.66-2.89-17.18-5.26-16.53-7.39-27.24-20.25-43.82-28.8s-36.68-13.9-53.01-24.03l-4-2.48h.85c12.26-2.01,24.65-3.17,37.08-3.48,12.59-.64,25.21-.52,37.78.36,12.67.71,25.38,0,37.89-2.13l-1.38-20.21c-12.65,1.91-25.47,2.41-38.24,1.48-12.61-.96-25.26-1.15-37.89-.57-12.42.29-24.81,1.46-37.08,3.48-12.13,1.99-24.44,2.7-36.72,2.12-12.37-.32-24.69-1.88-36.75-4.63-12.18-2.75-24.55-4.53-37.01-5.33-2.87-.21-5.52-.36-7.95-.46,3.07,42.42,5.41,85.6,4.24,131.26"/>
              <path id="Path_214" data-name="Path 214" class="cls-3" d="M518.47,223.92c7.5,1.23,13.05,2.57,18.54,3.85,3.22.78,6.51,1.52,10.18,2.22,12.97-7.07,29.05-10.81,41.71-18.69,10.73-8.12,21.01-16.84,30.79-26.09,1.45-1.3,1.16-.42,43.47-22.79,10.6-5.79,19.86-13.08,30.04-19.7,8.18-5.26,16.63-10.1,25.3-14.49v-.17c-12.37,1.64-24.88,1.79-37.29.43l-2.19-.25-1.38.96c-16.22,11.24-37.01,17.17-52.73,27.6-14.39,9.47-23.17,22.41-38.14,30.86-12.62,7.07-27.81,10.81-40.29,17.5-8.69,4.63-16.39,10.14-25.34,14.41l-2.72,1.31v3.05"/>
              <path id="Path_215" data-name="Path 215" class="cls-5" d="M493.69,242.04l7.91.64c12.42,1.04,24.75,3.03,36.87,5.94,12.11,2.94,24.48,4.67,36.93,5.16,12.27.76,24.59.23,36.75-1.59,12.34-1.81,24.78-2.79,37.25-2.93,12.72-.43,25.46-.11,38.14.95,12.86,1.05,25.79.66,38.56-1.16-.46-6.71-.96-13.46-1.41-20.17-12.77,1.8-25.71,2.14-38.56,1.02-12.72-1.07-25.48-1.42-38.24-1.05-12.45.1-24.89,1.03-37.22,2.79h-.85c6.81-7.32,14.61-13.65,23.17-18.8,12.65-7.39,28.27-12.41,40.89-20.6,8.94-5.79,17.22-12.24,26.65-18.03l1.88-1.16c7.07-4.28,15.06-8.31,17.99-9.86-.71-11.73-1.34-23.43-1.91-35.34-4.84,2.58-14.98,7.77-25.1,14.34-10.25,7.44-20.86,14.37-31.8,20.75-39.09,20.07-38.87,19.33-43.08,23.01-9.16,8.91-18.93,17.18-29.23,24.74-12.75,7.95-28.97,11.74-41.99,18.87-3.53-.71-7.07-1.45-10.17-2.22-5.45-1.27-11-2.62-18.54-3.86v-3.04l1.77-.81c9.47-4.56,17.67-10.36,26.93-15.27,11.95-6.29,26.51-9.76,38.49-16.51,15.55-8.76,24.91-22.26,40.08-32.01,15.94-10.22,36.47-16.29,52.59-27.49l.81-.57c-5.16-.5-10.6-1.07-17.84-1.38-39.13,19.58-38.88,18.84-43.47,22.58-9.38,8.87-19.31,17.13-29.73,24.74-12.93,7.7-28.44,11.24-41.2,17.85-9.33,4.76-17.67,10.6-27.01,15.06l-2.57,1.16c-1.74-30.12-2.65-60.54-1.77-92.17-4.98-1.16-10.88-2.32-18.2-3.53-2.83-.46-5.43-.86-7.88-1.16-.89,43.68.45,87.38,4.03,130.93"/>
              <path id="Path_216" data-name="Path 216" class="cls-3" d="M244.67,443.03h3.53c17.29-14.66,38.88-23.53,55.99-36.51,15.38-11.8,25.13-26.82,40.85-36.96,13.29-8.59,29.06-13.46,42.13-21.2,9.01-5.31,16.93-11.49,26.12-16.22l3.26-1.7c.03-1.3-.03-2.59-.17-3.88-6.32-.83-12.6-1.99-18.8-3.48-2.97-.6-5.93-1.24-9.27-1.84-13.9,8.31-31.03,13.22-44.92,22.79-11.01,8.95-21.38,18.66-31.03,29.06-3.96,3.92-3.53,2.69-45.7,29.12-11.59,7.5-21.53,16.79-32.44,25.56-5.79,4.63-13.46,10.6-26.05,19.22,11.95-2.87,24.22-4.17,36.51-3.86"/>
              <path id="Path_217" data-name="Path 217" class="cls-5" d="M206.04,327.89c13.09-2.49,26.44-3.28,39.73-2.38,12.94.89,25.93.89,38.87,0,12.75-.52,25.45-1.95,37.99-4.28h1c-7.16,8.27-15.33,15.61-24.33,21.84-12.83,8.52-28.27,14.77-41.39,24.39-9.61,7.07-18.31,15.15-28.27,22.58l-3.89,2.86c-7.62,5.55-16.22,11.1-19.5,13.22v41.49l2.09-.5c7.07-4.98,15.65-10.84,25.86-19.08,10.99-9.62,22.52-18.6,34.54-26.89,38.87-23.82,38.63-22.8,45.19-29.27,9.03-9.98,18.87-19.19,29.41-27.56,13.9-9.58,31.28-14.53,45.09-22.94,3.33.6,6.29,1.24,9.27,1.84,5.52,1.16,11.17,2.4,18.8,3.48-.03,1.3.03,2.59.17,3.88l-1.8.93c-9.72,5.09-18.24,11.59-27.81,17.21-13.12,7.67-28.91,12.62-42.41,21.2-16.37,10.61-26.3,26.47-42.87,38.49s-37.15,20.68-53.66,34.56c5.1,0,10.6,0,17.67-.38,40.23-25.37,40.23-24.33,45.95-29.97,9.97-10.66,20.7-20.57,32.13-29.65,13.24-8.94,29.33-13.79,42.62-21.56,9.69-5.65,18.24-12.19,27.99-17.38l2.26-1.16c1.16,31.1,1.31,62.57-.49,95.43,5.09.6,11.09,1.09,18.54,1.45,3.12,0,5.94.24,8.59.28,1.85-44.33,1.21-88.73-1.93-132.99-2.58,0-5.34-.28-8.34-.5-12.45-.78-24.82-2.59-36.97-5.43-12.21-2.92-24.7-4.55-37.25-4.88-12.49-.66-25.01.12-37.32,2.32-12.49,2.18-25.11,3.46-37.78,3.85-12.84.72-25.71.56-38.52-.49-13.2-1.07-26.47-.44-39.51,1.87v24.04"/>
              <path id="Path_218" data-name="Path 218" class="cls-3" d="M737.38,430.77l.95-.21-1.48-23.11c-14.48-2.69-27.98-9.24-39.06-18.94-7.36-6.2-15.41-11.53-24-15.87-13.57-6.78-29.62-10.6-43.22-18.31-9.51-5.26-18.2-11.41-27.99-16.6l-1.34-.71c-6.4.39-12.79.48-19.19.24-9.22-.18-18.41-1.03-27.51-2.55,4.06,3.51,8.38,6.71,12.91,9.58,13.43,8.45,29.34,13.6,42.87,21.45,9.43,5.45,18.13,11.53,27.89,16.37l1.9.92c4.34,2.09,8.79,3.95,13.32,5.58,16.5,4.61,31.86,12.6,45.09,23.46,24.75,19.06,37.47,18.54,38.88,18.7"/>
            </g>
          </g>
        </g>
      </g>
    </g>
    <g id="Group_50" data-name="Group 50">
      <g class="cls-6">
        <g id="Group_49" data-name="Group 49">
          <g id="Group_48" data-name="Group 48">
            <path id="Path_220" data-name="Path 220" class="cls-4" d="M754.24,852.23c.39-1.67,2.05-2.71,3.72-2.33.01,0,.03,0,.04,0h.54c8.33,4.21,17.49,6.51,26.82,6.74,13.67,0,19.89-5.36,19.89-16.39,0-9.27-4.95-13.25-20.21-18.94-19.62-7.07-31.82-12.15-31.82-34.99-.25-18.56,14.6-33.8,33.15-34.04,1.23-.02,2.46.04,3.68.15,10.94-.13,21.78,2.06,31.8,6.43,1.51.64,2.27,2.34,1.73,3.89l-3.28,10.24c-.57,1.64-2.34,2.54-4,2.02-8.21-3.17-16.94-4.74-25.73-4.63-11.52,0-17.28,5.02-17.28,14.31s5.62,12.97,21.41,18.84c18.8,6.74,31.49,12.26,31.49,34.6.62,19.15-14.4,35.17-33.55,35.79-1.56.05-3.13,0-4.69-.17-12.06.49-24.02-2.36-34.56-8.24-1.24-.68-1.87-2.1-1.53-3.48l2.34-9.81ZM738.02,853h-43.06c-1.02.03-1.87-.78-1.9-1.81,0-.01,0-.02,0-.04v-29.96c.01-1.04.86-1.88,1.9-1.88h32.06c1.73,0,3.14-1.41,3.14-3.14v-12.06c0-1.74-1.4-3.16-3.14-3.17h-32.06c-1.02.03-1.87-.78-1.9-1.81,0-.01,0-.02,0-.04v-25.17c0-1.05.85-1.9,1.9-1.9h40.55c1.73,0,3.14-1.41,3.14-3.14h0v-11.77c0-1.73-1.39-3.14-3.13-3.15h-60.91c-1.73,0-3.14,1.41-3.14,3.14h0v110.91c0,1.73,1.39,3.14,3.13,3.15h63.39c1.74,0,3.14-1.42,3.14-3.15v-12.12c-.14-1.63-1.5-2.89-3.14-2.9h.02ZM205.97,853h-43.04c-1.04.02-1.89-.81-1.91-1.84h0v-29.96c.02-1.04.87-1.88,1.91-1.88h32.06c1.73,0,3.14-1.41,3.14-3.14v-12.06c0-1.74-1.4-3.16-3.14-3.17h-32.06c-1.04.02-1.89-.81-1.91-1.84h0v-25.17c0-1.05.86-1.9,1.91-1.9h40.55c1.74.01,3.16-1.38,3.17-3.12v-11.8c0-1.73-1.39-3.14-3.13-3.15h-60.96c-1.74-.02-3.16,1.37-3.19,3.11v110.94c0,1.74,1.41,3.15,3.15,3.15h63.4c1.74,0,3.15-1.41,3.15-3.15v-12.12c-.15-1.63-1.51-2.89-3.15-2.9h.03ZM517.4,853h-43.04c-1.02.03-1.87-.78-1.9-1.81,0-.01,0-.02,0-.04v-29.96c.01-1.04.86-1.88,1.9-1.88h32.06c1.73,0,3.14-1.41,3.14-3.14v-12.06c0-1.74-1.4-3.16-3.14-3.17h-32.06c-1.02.03-1.87-.78-1.9-1.81,0-.01,0-.02,0-.04v-25.17c0-1.05.85-1.9,1.9-1.9h40.55c1.73,0,3.14-1.41,3.14-3.14h0v-11.77c0-1.73-1.39-3.14-3.13-3.15h-60.91c-1.73,0-3.14,1.41-3.14,3.14h0v110.91c0,1.73,1.39,3.14,3.13,3.15h63.39c1.74,0,3.14-1.42,3.14-3.15v-12.12c-.14-1.63-1.5-2.89-3.14-2.9h.01ZM914.22,754.04h-79.8c-1.74,0-3.15,1.41-3.15,3.15v12.19c0,1.73,1.41,3.14,3.14,3.14h26.59c1.04.03,1.87.87,1.87,1.91v93.65c0,1.74,1.41,3.15,3.15,3.15h16.22c1.73,0,3.14-1.41,3.14-3.14h0v-93.66c0-1.06.86-1.91,1.91-1.91h26.89c1.73,0,3.15-1.39,3.15-3.13h0v-12.2c0-1.74-1.41-3.15-3.15-3.15h.03ZM329.88,754.04h-79.84c-1.73,0-3.14,1.41-3.14,3.14h0v12.2c0,1.73,1.41,3.14,3.14,3.14h26.58c1.06,0,1.91.86,1.91,1.91v93.65c0,1.73,1.39,3.14,3.13,3.15h16.23c1.74.02,3.16-1.37,3.19-3.11v-93.7c0-1.04.83-1.89,1.87-1.91h26.9c1.73,0,3.14-1.41,3.14-3.14v-12.19c0-1.73-1.39-3.15-3.13-3.15h-.01.03ZM427.38,754.04h-16.43c-1.73,0-3.14,1.41-3.14,3.14h0v41.95c0,1.04-.84,1.88-1.88,1.88h-38.03c-1.03,0-1.87-.82-1.88-1.85,0,0,0-.02,0-.02v-41.87c0-1.73-1.39-3.14-3.13-3.15h-16.42c-1.73-.02-3.16,1.37-3.17,3.1,0,0,0,0,0,.01v110.94c0,1.73,1.41,3.14,3.14,3.14h16.41c1.73.02,3.16-1.37,3.17-3.1h0v-46.56c0-1.03.84-1.87,1.87-1.87h38.04c1.03,0,1.87.83,1.88,1.87v46.52c0,1.73,1.41,3.14,3.14,3.14h16.39c1.73,0,3.15-1.39,3.15-3.13h0v-110.92c.03-1.73-1.34-3.17-3.07-3.22h-.05ZM77.11,854.45h-11.7c-1.04-.02-1.88-.87-1.88-1.91v-29.48c0-1.04.84-1.89,1.88-1.9h12.11c10.22,0,22.37,3.04,22.37,17.38,0,11.59-6.22,15.87-22.79,15.87v.03ZM98.32,787.09c0,11.17-6.01,15.73-20.86,15.73h-12.08c-1.04-.02-1.88-.87-1.88-1.91v-27.92c0-1.04.83-1.89,1.88-1.91h11.2c15.41,0,21.42,4.5,21.42,16.01M122.24,839.75c1.13-11.91-5.53-23.19-16.5-27.96,9.57-5.53,15.23-15.96,14.65-27,0-27.49-24.74-30.68-43.36-30.68h-32.15c-1.74,0-3.15,1.41-3.15,3.15v110.91c0,1.73,1.41,3.14,3.14,3.14h36.83c26.9,0,40.55-10.6,40.55-31.56M609.73,854.45h-11.48c-1.06,0-1.91-.86-1.91-1.91v-29.48c0-1.05.85-1.9,1.9-1.9h12.1c10.21,0,22.37,3.04,22.37,17.38,0,11.59-6.22,15.87-22.98,15.87v.03ZM630.94,787.09c0,11.17-6,15.73-20.86,15.73h-11.77c-1.06,0-1.91-.86-1.91-1.91v-27.92c0-1.06.86-1.91,1.91-1.91h11.17c15.41,0,21.41,4.5,21.41,16.01M655.22,839.75c1.11-11.92-5.56-23.2-16.55-27.96,9.5-5.58,15.1-15.99,14.49-27,0-27.49-24.74-30.68-43.37-30.68h-32.16c-1.73,0-3.14,1.41-3.14,3.14h0v110.92c0,1.73,1.41,3.14,3.14,3.14h36.83c26.89,0,40.55-10.6,40.55-31.56"/>
          </g>
        </g>
      </g>
    </g>
  </g>
</svg>